<mxfile host="app.diagrams.net" modified="2023-02-26T05:36:36.556Z" agent="5.0 (Windows NT 10.0; Win64; x64) AppleWebKit/537.36 (KHTML, like Gecko) Chrome/110.0.0.0 Safari/537.36" etag="ZZ98KscicOMMje4Ekbj-" version="20.8.23" type="github" pages="2">
  <diagram name="第 1 页" id="0HF-bXw9sUiKlREXwIyp">
    <mxGraphModel dx="1434" dy="1909" grid="1" gridSize="10" guides="1" tooltips="1" connect="1" arrows="1" fold="1" page="1" pageScale="1" pageWidth="827" pageHeight="1169" math="0" shadow="0">
      <root>
        <mxCell id="0" />
        <mxCell id="1" parent="0" />
        <mxCell id="xlTnr0oYa22tqspzqVBi-1" value="struct net" style="swimlane;fontStyle=0;childLayout=stackLayout;horizontal=1;startSize=26;fillColor=none;horizontalStack=0;resizeParent=1;resizeParentMax=0;resizeLast=0;collapsible=1;marginBottom=0;" parent="1" vertex="1">
          <mxGeometry x="10" y="170" width="140" height="52" as="geometry" />
        </mxCell>
        <mxCell id="xlTnr0oYa22tqspzqVBi-2" value="+ nf" style="text;strokeColor=none;fillColor=none;align=left;verticalAlign=top;spacingLeft=4;spacingRight=4;overflow=hidden;rotatable=0;points=[[0,0.5],[1,0.5]];portConstraint=eastwest;" parent="xlTnr0oYa22tqspzqVBi-1" vertex="1">
          <mxGeometry y="26" width="140" height="26" as="geometry" />
        </mxCell>
        <mxCell id="xlTnr0oYa22tqspzqVBi-5" value="struct netns_nf" style="swimlane;fontStyle=0;childLayout=stackLayout;horizontal=1;startSize=26;fillColor=none;horizontalStack=0;resizeParent=1;resizeParentMax=0;resizeLast=0;collapsible=1;marginBottom=0;" parent="1" vertex="1">
          <mxGeometry x="240" y="200" width="230" height="156" as="geometry" />
        </mxCell>
        <mxCell id="xlTnr0oYa22tqspzqVBi-6" value="+ *hooks_ipv4[NF_INET_NUMHOOKS]" style="text;strokeColor=none;fillColor=none;align=left;verticalAlign=top;spacingLeft=4;spacingRight=4;overflow=hidden;rotatable=0;points=[[0,0.5],[1,0.5]];portConstraint=eastwest;" parent="xlTnr0oYa22tqspzqVBi-5" vertex="1">
          <mxGeometry y="26" width="230" height="26" as="geometry" />
        </mxCell>
        <mxCell id="xlTnr0oYa22tqspzqVBi-7" value="+ *hooks_ipv6[NF_INET_NUMHOOKS]" style="text;strokeColor=none;fillColor=none;align=left;verticalAlign=top;spacingLeft=4;spacingRight=4;overflow=hidden;rotatable=0;points=[[0,0.5],[1,0.5]];portConstraint=eastwest;" parent="xlTnr0oYa22tqspzqVBi-5" vertex="1">
          <mxGeometry y="52" width="230" height="26" as="geometry" />
        </mxCell>
        <mxCell id="xlTnr0oYa22tqspzqVBi-8" value="+ *hooks_arp[NF_ARP_NUMHOOKS]" style="text;strokeColor=none;fillColor=none;align=left;verticalAlign=top;spacingLeft=4;spacingRight=4;overflow=hidden;rotatable=0;points=[[0,0.5],[1,0.5]];portConstraint=eastwest;" parent="xlTnr0oYa22tqspzqVBi-5" vertex="1">
          <mxGeometry y="78" width="230" height="26" as="geometry" />
        </mxCell>
        <mxCell id="xlTnr0oYa22tqspzqVBi-10" value="+ *hooks_bridge[NF_INET_NUMHOOKS]" style="text;strokeColor=none;fillColor=none;align=left;verticalAlign=top;spacingLeft=4;spacingRight=4;overflow=hidden;rotatable=0;points=[[0,0.5],[1,0.5]];portConstraint=eastwest;" parent="xlTnr0oYa22tqspzqVBi-5" vertex="1">
          <mxGeometry y="104" width="230" height="26" as="geometry" />
        </mxCell>
        <mxCell id="xlTnr0oYa22tqspzqVBi-11" value="+ *hooks_decnet[NF_DN_NUMHOOKS]" style="text;strokeColor=none;fillColor=none;align=left;verticalAlign=top;spacingLeft=4;spacingRight=4;overflow=hidden;rotatable=0;points=[[0,0.5],[1,0.5]];portConstraint=eastwest;" parent="xlTnr0oYa22tqspzqVBi-5" vertex="1">
          <mxGeometry y="130" width="230" height="26" as="geometry" />
        </mxCell>
        <mxCell id="xlTnr0oYa22tqspzqVBi-12" value="" style="edgeStyle=orthogonalEdgeStyle;rounded=0;orthogonalLoop=1;jettySize=auto;html=1;entryX=0;entryY=0.057;entryDx=0;entryDy=0;entryPerimeter=0;" parent="1" source="xlTnr0oYa22tqspzqVBi-2" target="xlTnr0oYa22tqspzqVBi-5" edge="1">
          <mxGeometry relative="1" as="geometry" />
        </mxCell>
        <mxCell id="xlTnr0oYa22tqspzqVBi-28" value="" style="endArrow=none;dashed=1;html=1;rounded=0;exitX=1;exitY=0.5;exitDx=0;exitDy=0;entryX=0;entryY=0;entryDx=0;entryDy=0;" parent="1" source="xlTnr0oYa22tqspzqVBi-6" target="xlTnr0oYa22tqspzqVBi-24" edge="1">
          <mxGeometry width="50" height="50" relative="1" as="geometry">
            <mxPoint x="500" y="250" as="sourcePoint" />
            <mxPoint x="540" y="170" as="targetPoint" />
          </mxGeometry>
        </mxCell>
        <mxCell id="xlTnr0oYa22tqspzqVBi-29" value="" style="endArrow=none;dashed=1;html=1;rounded=0;exitX=1;exitY=0.5;exitDx=0;exitDy=0;entryX=0;entryY=1;entryDx=0;entryDy=0;" parent="1" source="xlTnr0oYa22tqspzqVBi-6" target="xlTnr0oYa22tqspzqVBi-27" edge="1">
          <mxGeometry width="50" height="50" relative="1" as="geometry">
            <mxPoint x="480" y="249" as="sourcePoint" />
            <mxPoint x="530" y="290" as="targetPoint" />
          </mxGeometry>
        </mxCell>
        <mxCell id="xlTnr0oYa22tqspzqVBi-30" value="" style="group" parent="1" vertex="1" connectable="0">
          <mxGeometry x="560" y="200" width="120" height="80" as="geometry" />
        </mxCell>
        <mxCell id="xlTnr0oYa22tqspzqVBi-24" value="* nf_hook_entries" style="rounded=0;whiteSpace=wrap;html=1;shadow=0;glass=0;sketch=0;fillColor=default;gradientColor=none;" parent="xlTnr0oYa22tqspzqVBi-30" vertex="1">
          <mxGeometry width="120" height="20" as="geometry" />
        </mxCell>
        <mxCell id="xlTnr0oYa22tqspzqVBi-25" value="* nf_hook_entries" style="rounded=0;whiteSpace=wrap;html=1;shadow=0;glass=0;sketch=0;fillColor=default;gradientColor=none;" parent="xlTnr0oYa22tqspzqVBi-30" vertex="1">
          <mxGeometry y="20" width="120" height="20" as="geometry" />
        </mxCell>
        <mxCell id="xlTnr0oYa22tqspzqVBi-26" value="..." style="rounded=0;whiteSpace=wrap;html=1;shadow=0;glass=0;sketch=0;fillColor=default;gradientColor=none;" parent="xlTnr0oYa22tqspzqVBi-30" vertex="1">
          <mxGeometry y="40" width="120" height="20" as="geometry" />
        </mxCell>
        <mxCell id="xlTnr0oYa22tqspzqVBi-27" value="* nf_hook_entries" style="rounded=0;whiteSpace=wrap;html=1;shadow=0;glass=0;sketch=0;fillColor=default;gradientColor=none;" parent="xlTnr0oYa22tqspzqVBi-30" vertex="1">
          <mxGeometry y="60" width="120" height="20" as="geometry" />
        </mxCell>
        <mxCell id="xlTnr0oYa22tqspzqVBi-31" value="指针数组" style="text;html=1;strokeColor=none;fillColor=none;align=center;verticalAlign=middle;whiteSpace=wrap;rounded=0;" parent="1" vertex="1">
          <mxGeometry x="560" y="170" width="60" height="30" as="geometry" />
        </mxCell>
        <mxCell id="xlTnr0oYa22tqspzqVBi-41" value="" style="edgeStyle=orthogonalEdgeStyle;rounded=0;orthogonalLoop=1;jettySize=auto;html=1;entryX=0.5;entryY=0;entryDx=0;entryDy=0;" parent="1" source="xlTnr0oYa22tqspzqVBi-24" target="xlTnr0oYa22tqspzqVBi-13" edge="1">
          <mxGeometry relative="1" as="geometry">
            <mxPoint x="790" y="400" as="targetPoint" />
            <Array as="points">
              <mxPoint x="900" y="210" />
            </Array>
          </mxGeometry>
        </mxCell>
        <mxCell id="xlTnr0oYa22tqspzqVBi-42" value="变长结构，三部分组成：&lt;br&gt;1 * nf_hook_entries +&lt;br&gt;n * nf_hook_entry +&lt;br&gt;n * (*nf_hook_ops) +&lt;br&gt;1 * nf_hook_entries_rcu_head&amp;nbsp;" style="text;html=1;strokeColor=none;fillColor=none;align=left;verticalAlign=middle;whiteSpace=wrap;rounded=0;" parent="1" vertex="1">
          <mxGeometry x="910" y="210" width="180" height="70" as="geometry" />
        </mxCell>
        <mxCell id="xlTnr0oYa22tqspzqVBi-46" value="&lt;div&gt;enum nf_inet_hooks {&lt;/div&gt;&lt;div&gt; &lt;span style=&quot;white-space: pre;&quot;&gt; &lt;/span&gt;NF_INET_PRE_ROUTING,&lt;/div&gt;&lt;div&gt;&lt;span style=&quot;&quot;&gt; &lt;/span&gt;&lt;span style=&quot;white-space: pre;&quot;&gt; &lt;/span&gt;NF_INET_LOCAL_IN,&lt;/div&gt;&lt;div&gt;&lt;span style=&quot;&quot;&gt; &lt;/span&gt;&lt;span style=&quot;white-space: pre;&quot;&gt; &lt;/span&gt;NF_INET_FORWARD,&lt;/div&gt;&lt;div&gt;&lt;span style=&quot;&quot;&gt; &lt;/span&gt;&lt;span style=&quot;white-space: pre;&quot;&gt; &lt;/span&gt;NF_INET_LOCAL_OUT,&lt;/div&gt;&lt;div&gt;&lt;span style=&quot;&quot;&gt; &lt;/span&gt;&lt;span style=&quot;white-space: pre;&quot;&gt; &lt;/span&gt;NF_INET_POST_ROUTING,&lt;/div&gt;&lt;div&gt;&lt;span style=&quot;&quot;&gt; &lt;/span&gt;&lt;span style=&quot;white-space: pre;&quot;&gt; &lt;/span&gt;NF_INET_NUMHOOKS,&lt;/div&gt;&lt;div&gt;};&lt;/div&gt;" style="rounded=0;whiteSpace=wrap;html=1;shadow=0;glass=0;sketch=0;fillColor=default;gradientColor=none;align=left;" parent="1" vertex="1">
          <mxGeometry x="520" y="-50" width="200" height="130" as="geometry" />
        </mxCell>
        <mxCell id="xlTnr0oYa22tqspzqVBi-47" value="" style="endArrow=classic;html=1;rounded=0;exitX=0.5;exitY=1;exitDx=0;exitDy=0;entryX=1;entryY=0;entryDx=0;entryDy=0;" parent="1" source="xlTnr0oYa22tqspzqVBi-46" target="xlTnr0oYa22tqspzqVBi-31" edge="1">
          <mxGeometry width="50" height="50" relative="1" as="geometry">
            <mxPoint x="650" y="160" as="sourcePoint" />
            <mxPoint x="700" y="110" as="targetPoint" />
          </mxGeometry>
        </mxCell>
        <mxCell id="xlTnr0oYa22tqspzqVBi-48" value="每个钩子点，占用一个数组索引" style="text;html=1;strokeColor=none;fillColor=none;align=center;verticalAlign=middle;whiteSpace=wrap;rounded=0;" parent="1" vertex="1">
          <mxGeometry x="620" y="80" width="170" height="30" as="geometry" />
        </mxCell>
        <mxCell id="xlTnr0oYa22tqspzqVBi-78" value="调用__nf_register_net_hook注册一个新的ops，会使得变长结构增长。nf_hook_entry按优先级排列，priority值越小，优先级越高，排的越靠前。" style="text;html=1;strokeColor=none;fillColor=none;align=left;verticalAlign=middle;whiteSpace=wrap;rounded=0;" parent="1" vertex="1">
          <mxGeometry x="990" y="370" width="240" height="70" as="geometry" />
        </mxCell>
        <mxCell id="xlTnr0oYa22tqspzqVBi-79" value="指向注册的原始ops" style="text;html=1;strokeColor=none;fillColor=none;align=center;verticalAlign=middle;whiteSpace=wrap;rounded=0;rotation=-30;" parent="1" vertex="1">
          <mxGeometry x="967" y="550" width="170" height="30" as="geometry" />
        </mxCell>
        <mxCell id="xlTnr0oYa22tqspzqVBi-80" value="" style="endArrow=classic;html=1;rounded=0;exitX=1;exitY=0.5;exitDx=0;exitDy=0;entryX=0.006;entryY=0.073;entryDx=0;entryDy=0;entryPerimeter=0;" parent="1" source="xlTnr0oYa22tqspzqVBi-71" target="xlTnr0oYa22tqspzqVBi-49" edge="1">
          <mxGeometry width="50" height="50" relative="1" as="geometry">
            <mxPoint x="960" y="600" as="sourcePoint" />
            <mxPoint x="1010" y="550" as="targetPoint" />
          </mxGeometry>
        </mxCell>
        <mxCell id="xlTnr0oYa22tqspzqVBi-81" value="" style="endArrow=classic;html=1;rounded=0;exitX=1;exitY=0.5;exitDx=0;exitDy=0;entryX=-0.006;entryY=0.082;entryDx=0;entryDy=0;entryPerimeter=0;" parent="1" source="xlTnr0oYa22tqspzqVBi-72" target="xlTnr0oYa22tqspzqVBi-56" edge="1">
          <mxGeometry width="50" height="50" relative="1" as="geometry">
            <mxPoint x="910" y="564" as="sourcePoint" />
            <mxPoint x="1091" y="412" as="targetPoint" />
          </mxGeometry>
        </mxCell>
        <mxCell id="xlTnr0oYa22tqspzqVBi-49" value="struct nf_hook_ops" style="swimlane;fontStyle=0;childLayout=stackLayout;horizontal=1;startSize=26;fillColor=none;horizontalStack=0;resizeParent=1;resizeParentMax=0;resizeLast=0;collapsible=1;marginBottom=0;rounded=1;shadow=0;glass=0;sketch=0;" parent="1" vertex="1">
          <mxGeometry x="1150" y="520" width="140" height="182" as="geometry" />
        </mxCell>
        <mxCell id="xlTnr0oYa22tqspzqVBi-50" value="+ *hook" style="text;strokeColor=none;fillColor=none;align=left;verticalAlign=top;spacingLeft=4;spacingRight=4;overflow=hidden;rotatable=0;points=[[0,0.5],[1,0.5]];portConstraint=eastwest;" parent="xlTnr0oYa22tqspzqVBi-49" vertex="1">
          <mxGeometry y="26" width="140" height="26" as="geometry" />
        </mxCell>
        <mxCell id="xlTnr0oYa22tqspzqVBi-51" value="+ *dev" style="text;strokeColor=none;fillColor=none;align=left;verticalAlign=top;spacingLeft=4;spacingRight=4;overflow=hidden;rotatable=0;points=[[0,0.5],[1,0.5]];portConstraint=eastwest;" parent="xlTnr0oYa22tqspzqVBi-49" vertex="1">
          <mxGeometry y="52" width="140" height="26" as="geometry" />
        </mxCell>
        <mxCell id="xlTnr0oYa22tqspzqVBi-52" value="+ *priv" style="text;strokeColor=none;fillColor=none;align=left;verticalAlign=top;spacingLeft=4;spacingRight=4;overflow=hidden;rotatable=0;points=[[0,0.5],[1,0.5]];portConstraint=eastwest;" parent="xlTnr0oYa22tqspzqVBi-49" vertex="1">
          <mxGeometry y="78" width="140" height="26" as="geometry" />
        </mxCell>
        <mxCell id="xlTnr0oYa22tqspzqVBi-53" value="+ pf" style="text;strokeColor=none;fillColor=none;align=left;verticalAlign=top;spacingLeft=4;spacingRight=4;overflow=hidden;rotatable=0;points=[[0,0.5],[1,0.5]];portConstraint=eastwest;" parent="xlTnr0oYa22tqspzqVBi-49" vertex="1">
          <mxGeometry y="104" width="140" height="26" as="geometry" />
        </mxCell>
        <mxCell id="xlTnr0oYa22tqspzqVBi-54" value="+ hooknum" style="text;strokeColor=none;fillColor=none;align=left;verticalAlign=top;spacingLeft=4;spacingRight=4;overflow=hidden;rotatable=0;points=[[0,0.5],[1,0.5]];portConstraint=eastwest;" parent="xlTnr0oYa22tqspzqVBi-49" vertex="1">
          <mxGeometry y="130" width="140" height="26" as="geometry" />
        </mxCell>
        <mxCell id="xlTnr0oYa22tqspzqVBi-55" value="+ priority" style="text;strokeColor=none;fillColor=none;align=left;verticalAlign=top;spacingLeft=4;spacingRight=4;overflow=hidden;rotatable=0;points=[[0,0.5],[1,0.5]];portConstraint=eastwest;" parent="xlTnr0oYa22tqspzqVBi-49" vertex="1">
          <mxGeometry y="156" width="140" height="26" as="geometry" />
        </mxCell>
        <mxCell id="xlTnr0oYa22tqspzqVBi-56" value="struct nf_hook_ops" style="swimlane;fontStyle=0;childLayout=stackLayout;horizontal=1;startSize=26;fillColor=none;horizontalStack=0;resizeParent=1;resizeParentMax=0;resizeLast=0;collapsible=1;marginBottom=0;rounded=1;shadow=0;glass=0;sketch=0;" parent="1" vertex="1">
          <mxGeometry x="1150" y="715" width="140" height="182" as="geometry" />
        </mxCell>
        <mxCell id="xlTnr0oYa22tqspzqVBi-57" value="+ *hook" style="text;strokeColor=none;fillColor=none;align=left;verticalAlign=top;spacingLeft=4;spacingRight=4;overflow=hidden;rotatable=0;points=[[0,0.5],[1,0.5]];portConstraint=eastwest;" parent="xlTnr0oYa22tqspzqVBi-56" vertex="1">
          <mxGeometry y="26" width="140" height="26" as="geometry" />
        </mxCell>
        <mxCell id="xlTnr0oYa22tqspzqVBi-58" value="+ *dev" style="text;strokeColor=none;fillColor=none;align=left;verticalAlign=top;spacingLeft=4;spacingRight=4;overflow=hidden;rotatable=0;points=[[0,0.5],[1,0.5]];portConstraint=eastwest;" parent="xlTnr0oYa22tqspzqVBi-56" vertex="1">
          <mxGeometry y="52" width="140" height="26" as="geometry" />
        </mxCell>
        <mxCell id="xlTnr0oYa22tqspzqVBi-59" value="+ *priv" style="text;strokeColor=none;fillColor=none;align=left;verticalAlign=top;spacingLeft=4;spacingRight=4;overflow=hidden;rotatable=0;points=[[0,0.5],[1,0.5]];portConstraint=eastwest;" parent="xlTnr0oYa22tqspzqVBi-56" vertex="1">
          <mxGeometry y="78" width="140" height="26" as="geometry" />
        </mxCell>
        <mxCell id="xlTnr0oYa22tqspzqVBi-60" value="+ pf" style="text;strokeColor=none;fillColor=none;align=left;verticalAlign=top;spacingLeft=4;spacingRight=4;overflow=hidden;rotatable=0;points=[[0,0.5],[1,0.5]];portConstraint=eastwest;" parent="xlTnr0oYa22tqspzqVBi-56" vertex="1">
          <mxGeometry y="104" width="140" height="26" as="geometry" />
        </mxCell>
        <mxCell id="xlTnr0oYa22tqspzqVBi-61" value="+ hooknum" style="text;strokeColor=none;fillColor=none;align=left;verticalAlign=top;spacingLeft=4;spacingRight=4;overflow=hidden;rotatable=0;points=[[0,0.5],[1,0.5]];portConstraint=eastwest;" parent="xlTnr0oYa22tqspzqVBi-56" vertex="1">
          <mxGeometry y="130" width="140" height="26" as="geometry" />
        </mxCell>
        <mxCell id="xlTnr0oYa22tqspzqVBi-62" value="+ priority" style="text;strokeColor=none;fillColor=none;align=left;verticalAlign=top;spacingLeft=4;spacingRight=4;overflow=hidden;rotatable=0;points=[[0,0.5],[1,0.5]];portConstraint=eastwest;" parent="xlTnr0oYa22tqspzqVBi-56" vertex="1">
          <mxGeometry y="156" width="140" height="26" as="geometry" />
        </mxCell>
        <mxCell id="WGcpLWfaYdW83E1MO45Z-1" value="struct net_device" style="swimlane;fontStyle=0;childLayout=stackLayout;horizontal=1;startSize=26;fillColor=none;horizontalStack=0;resizeParent=1;resizeParentMax=0;resizeLast=0;collapsible=1;marginBottom=0;" parent="1" vertex="1">
          <mxGeometry x="10" y="582" width="140" height="78" as="geometry" />
        </mxCell>
        <mxCell id="WGcpLWfaYdW83E1MO45Z-2" value="+ *nf_hooks_ingress" style="text;strokeColor=none;fillColor=none;align=left;verticalAlign=top;spacingLeft=4;spacingRight=4;overflow=hidden;rotatable=0;points=[[0,0.5],[1,0.5]];portConstraint=eastwest;" parent="WGcpLWfaYdW83E1MO45Z-1" vertex="1">
          <mxGeometry y="26" width="140" height="26" as="geometry" />
        </mxCell>
        <mxCell id="WGcpLWfaYdW83E1MO45Z-3" value="+ *nf_hooks_egress" style="text;strokeColor=none;fillColor=none;align=left;verticalAlign=top;spacingLeft=4;spacingRight=4;overflow=hidden;rotatable=0;points=[[0,0.5],[1,0.5]];portConstraint=eastwest;" parent="WGcpLWfaYdW83E1MO45Z-1" vertex="1">
          <mxGeometry y="52" width="140" height="26" as="geometry" />
        </mxCell>
        <mxCell id="WGcpLWfaYdW83E1MO45Z-6" value="" style="group" parent="1" vertex="1" connectable="0">
          <mxGeometry x="690" y="290" width="310" height="508" as="geometry" />
        </mxCell>
        <mxCell id="WGcpLWfaYdW83E1MO45Z-4" value="" style="group" parent="WGcpLWfaYdW83E1MO45Z-6" vertex="1" connectable="0">
          <mxGeometry y="343" width="310" height="165" as="geometry" />
        </mxCell>
        <mxCell id="xlTnr0oYa22tqspzqVBi-65" value="" style="shape=curlyBracket;whiteSpace=wrap;html=1;rounded=1;labelPosition=left;verticalLabelPosition=middle;align=right;verticalAlign=middle;shadow=0;glass=0;sketch=0;fillColor=default;gradientColor=none;size=0.5;" parent="WGcpLWfaYdW83E1MO45Z-4" vertex="1">
          <mxGeometry x="110" y="2" width="20" height="80" as="geometry" />
        </mxCell>
        <mxCell id="xlTnr0oYa22tqspzqVBi-66" value="num_hook_entries" style="text;html=1;strokeColor=none;fillColor=none;align=center;verticalAlign=middle;whiteSpace=wrap;rounded=0;" parent="WGcpLWfaYdW83E1MO45Z-4" vertex="1">
          <mxGeometry y="27" width="100" height="30" as="geometry" />
        </mxCell>
        <mxCell id="xlTnr0oYa22tqspzqVBi-67" value="struct nf_hook_entries_rcu_head" style="swimlane;fontStyle=0;childLayout=stackLayout;horizontal=1;startSize=26;fillColor=none;horizontalStack=0;resizeParent=1;resizeParentMax=0;resizeLast=0;collapsible=1;marginBottom=0;rounded=1;shadow=0;glass=0;sketch=0;" parent="WGcpLWfaYdW83E1MO45Z-4" vertex="1">
          <mxGeometry x="100" y="87" width="210" height="78" as="geometry" />
        </mxCell>
        <mxCell id="xlTnr0oYa22tqspzqVBi-68" value="+ head" style="text;strokeColor=none;fillColor=none;align=left;verticalAlign=top;spacingLeft=4;spacingRight=4;overflow=hidden;rotatable=0;points=[[0,0.5],[1,0.5]];portConstraint=eastwest;" parent="xlTnr0oYa22tqspzqVBi-67" vertex="1">
          <mxGeometry y="26" width="210" height="26" as="geometry" />
        </mxCell>
        <mxCell id="xlTnr0oYa22tqspzqVBi-69" value="+ *allocation" style="text;strokeColor=none;fillColor=none;align=left;verticalAlign=top;spacingLeft=4;spacingRight=4;overflow=hidden;rotatable=0;points=[[0,0.5],[1,0.5]];portConstraint=eastwest;" parent="xlTnr0oYa22tqspzqVBi-67" vertex="1">
          <mxGeometry y="52" width="210" height="26" as="geometry" />
        </mxCell>
        <mxCell id="xlTnr0oYa22tqspzqVBi-75" value="" style="group" parent="WGcpLWfaYdW83E1MO45Z-4" vertex="1" connectable="0">
          <mxGeometry x="140" width="140" height="84" as="geometry" />
        </mxCell>
        <mxCell id="xlTnr0oYa22tqspzqVBi-71" value="* nf_hook_ops" style="rounded=1;whiteSpace=wrap;html=1;shadow=0;glass=0;sketch=0;fillColor=default;gradientColor=none;" parent="xlTnr0oYa22tqspzqVBi-75" vertex="1">
          <mxGeometry width="140" height="21" as="geometry" />
        </mxCell>
        <mxCell id="xlTnr0oYa22tqspzqVBi-72" value="* nf_hook_ops" style="rounded=1;whiteSpace=wrap;html=1;shadow=0;glass=0;sketch=0;fillColor=default;gradientColor=none;" parent="xlTnr0oYa22tqspzqVBi-75" vertex="1">
          <mxGeometry y="21" width="140" height="21" as="geometry" />
        </mxCell>
        <mxCell id="xlTnr0oYa22tqspzqVBi-73" value="..." style="rounded=1;whiteSpace=wrap;html=1;shadow=0;glass=0;sketch=0;fillColor=default;gradientColor=none;" parent="xlTnr0oYa22tqspzqVBi-75" vertex="1">
          <mxGeometry y="42" width="140" height="21" as="geometry" />
        </mxCell>
        <mxCell id="xlTnr0oYa22tqspzqVBi-74" value="* nf_hook_ops" style="rounded=1;whiteSpace=wrap;html=1;shadow=0;glass=0;sketch=0;fillColor=default;gradientColor=none;" parent="xlTnr0oYa22tqspzqVBi-75" vertex="1">
          <mxGeometry y="63" width="140" height="21" as="geometry" />
        </mxCell>
        <mxCell id="WGcpLWfaYdW83E1MO45Z-5" value="" style="group" parent="WGcpLWfaYdW83E1MO45Z-6" vertex="1" connectable="0">
          <mxGeometry width="280" height="340" as="geometry" />
        </mxCell>
        <mxCell id="xlTnr0oYa22tqspzqVBi-40" value="" style="group" parent="WGcpLWfaYdW83E1MO45Z-5" vertex="1" connectable="0">
          <mxGeometry x="140" width="140" height="338" as="geometry" />
        </mxCell>
        <mxCell id="xlTnr0oYa22tqspzqVBi-13" value="struct nf_hook_entries" style="swimlane;fontStyle=0;childLayout=stackLayout;horizontal=1;startSize=26;fillColor=none;horizontalStack=0;resizeParent=1;resizeParentMax=0;resizeLast=0;collapsible=1;marginBottom=0;" parent="xlTnr0oYa22tqspzqVBi-40" vertex="1">
          <mxGeometry width="140" height="78" as="geometry" />
        </mxCell>
        <mxCell id="xlTnr0oYa22tqspzqVBi-14" value="+ num_hook_entries" style="text;strokeColor=none;fillColor=none;align=left;verticalAlign=top;spacingLeft=4;spacingRight=4;overflow=hidden;rotatable=0;points=[[0,0.5],[1,0.5]];portConstraint=eastwest;" parent="xlTnr0oYa22tqspzqVBi-13" vertex="1">
          <mxGeometry y="26" width="140" height="26" as="geometry" />
        </mxCell>
        <mxCell id="xlTnr0oYa22tqspzqVBi-15" value="+ hooks[]" style="text;strokeColor=none;fillColor=none;align=left;verticalAlign=top;spacingLeft=4;spacingRight=4;overflow=hidden;rotatable=0;points=[[0,0.5],[1,0.5]];portConstraint=eastwest;" parent="xlTnr0oYa22tqspzqVBi-13" vertex="1">
          <mxGeometry y="52" width="140" height="26" as="geometry" />
        </mxCell>
        <mxCell id="xlTnr0oYa22tqspzqVBi-17" value="struct nf_hook_entry" style="swimlane;fontStyle=0;childLayout=stackLayout;horizontal=1;startSize=26;horizontalStack=0;resizeParent=1;resizeParentMax=0;resizeLast=0;collapsible=1;marginBottom=0;rounded=1;glass=0;swimlaneLine=1;shadow=0;gradientColor=none;swimlaneFillColor=none;" parent="xlTnr0oYa22tqspzqVBi-40" vertex="1">
          <mxGeometry y="78" width="140" height="78" as="geometry" />
        </mxCell>
        <mxCell id="xlTnr0oYa22tqspzqVBi-18" value="+ *hook" style="text;strokeColor=none;fillColor=none;align=left;verticalAlign=top;spacingLeft=4;spacingRight=4;overflow=hidden;rotatable=0;points=[[0,0.5],[1,0.5]];portConstraint=eastwest;" parent="xlTnr0oYa22tqspzqVBi-17" vertex="1">
          <mxGeometry y="26" width="140" height="26" as="geometry" />
        </mxCell>
        <mxCell id="xlTnr0oYa22tqspzqVBi-19" value="+ *priv" style="text;strokeColor=none;fillColor=none;align=left;verticalAlign=top;spacingLeft=4;spacingRight=4;overflow=hidden;rotatable=0;points=[[0,0.5],[1,0.5]];portConstraint=eastwest;" parent="xlTnr0oYa22tqspzqVBi-17" vertex="1">
          <mxGeometry y="52" width="140" height="26" as="geometry" />
        </mxCell>
        <mxCell id="xlTnr0oYa22tqspzqVBi-21" value="struct nf_hook_entry" style="swimlane;fontStyle=0;childLayout=stackLayout;horizontal=1;startSize=26;fillColor=none;horizontalStack=0;resizeParent=1;resizeParentMax=0;resizeLast=0;collapsible=1;marginBottom=0;rounded=1;" parent="xlTnr0oYa22tqspzqVBi-40" vertex="1">
          <mxGeometry y="156" width="140" height="78" as="geometry" />
        </mxCell>
        <mxCell id="xlTnr0oYa22tqspzqVBi-22" value="+ *hook" style="text;strokeColor=none;fillColor=none;align=left;verticalAlign=top;spacingLeft=4;spacingRight=4;overflow=hidden;rotatable=0;points=[[0,0.5],[1,0.5]];portConstraint=eastwest;" parent="xlTnr0oYa22tqspzqVBi-21" vertex="1">
          <mxGeometry y="26" width="140" height="26" as="geometry" />
        </mxCell>
        <mxCell id="xlTnr0oYa22tqspzqVBi-23" value="+ *priv" style="text;strokeColor=none;fillColor=none;align=left;verticalAlign=top;spacingLeft=4;spacingRight=4;overflow=hidden;rotatable=0;points=[[0,0.5],[1,0.5]];portConstraint=eastwest;" parent="xlTnr0oYa22tqspzqVBi-21" vertex="1">
          <mxGeometry y="52" width="140" height="26" as="geometry" />
        </mxCell>
        <mxCell id="xlTnr0oYa22tqspzqVBi-32" value="struct nf_hook_entry" style="swimlane;fontStyle=0;childLayout=stackLayout;horizontal=1;startSize=26;fillColor=none;horizontalStack=0;resizeParent=1;resizeParentMax=0;resizeLast=0;collapsible=1;marginBottom=0;rounded=1;" parent="xlTnr0oYa22tqspzqVBi-40" vertex="1">
          <mxGeometry y="260" width="140" height="78" as="geometry" />
        </mxCell>
        <mxCell id="xlTnr0oYa22tqspzqVBi-33" value="+ *hook" style="text;strokeColor=none;fillColor=none;align=left;verticalAlign=top;spacingLeft=4;spacingRight=4;overflow=hidden;rotatable=0;points=[[0,0.5],[1,0.5]];portConstraint=eastwest;" parent="xlTnr0oYa22tqspzqVBi-32" vertex="1">
          <mxGeometry y="26" width="140" height="26" as="geometry" />
        </mxCell>
        <mxCell id="xlTnr0oYa22tqspzqVBi-34" value="+ *priv" style="text;strokeColor=none;fillColor=none;align=left;verticalAlign=top;spacingLeft=4;spacingRight=4;overflow=hidden;rotatable=0;points=[[0,0.5],[1,0.5]];portConstraint=eastwest;" parent="xlTnr0oYa22tqspzqVBi-32" vertex="1">
          <mxGeometry y="52" width="140" height="26" as="geometry" />
        </mxCell>
        <mxCell id="xlTnr0oYa22tqspzqVBi-39" value="" style="endArrow=none;dashed=1;html=1;dashPattern=1 3;strokeWidth=2;rounded=0;entryX=0.5;entryY=1.122;entryDx=0;entryDy=0;entryPerimeter=0;exitX=0.5;exitY=0;exitDx=0;exitDy=0;" parent="xlTnr0oYa22tqspzqVBi-40" source="xlTnr0oYa22tqspzqVBi-32" target="xlTnr0oYa22tqspzqVBi-23" edge="1">
          <mxGeometry width="50" height="50" relative="1" as="geometry">
            <mxPoint x="-50" y="310" as="sourcePoint" />
            <mxPoint y="260" as="targetPoint" />
          </mxGeometry>
        </mxCell>
        <mxCell id="xlTnr0oYa22tqspzqVBi-43" value="" style="shape=curlyBracket;whiteSpace=wrap;html=1;rounded=1;labelPosition=left;verticalLabelPosition=middle;align=right;verticalAlign=middle;shadow=0;glass=0;sketch=0;fillColor=default;gradientColor=none;" parent="WGcpLWfaYdW83E1MO45Z-5" vertex="1">
          <mxGeometry x="110" y="80" width="20" height="260" as="geometry" />
        </mxCell>
        <mxCell id="xlTnr0oYa22tqspzqVBi-44" value="num_hook_entries" style="text;html=1;strokeColor=none;fillColor=none;align=center;verticalAlign=middle;whiteSpace=wrap;rounded=0;" parent="WGcpLWfaYdW83E1MO45Z-5" vertex="1">
          <mxGeometry y="195" width="100" height="30" as="geometry" />
        </mxCell>
        <mxCell id="WGcpLWfaYdW83E1MO45Z-7" value="" style="edgeStyle=orthogonalEdgeStyle;rounded=0;orthogonalLoop=1;jettySize=auto;html=1;exitX=1;exitY=0.5;exitDx=0;exitDy=0;entryX=0.014;entryY=0.154;entryDx=0;entryDy=0;entryPerimeter=0;" parent="1" source="WGcpLWfaYdW83E1MO45Z-2" target="WGcpLWfaYdW83E1MO45Z-17" edge="1">
          <mxGeometry relative="1" as="geometry">
            <mxPoint x="230" y="675" as="sourcePoint" />
            <mxPoint x="440" y="510" as="targetPoint" />
            <Array as="points">
              <mxPoint x="150" y="620" />
              <mxPoint x="280" y="620" />
              <mxPoint x="280" y="542" />
            </Array>
          </mxGeometry>
        </mxCell>
        <mxCell id="WGcpLWfaYdW83E1MO45Z-8" value="" style="edgeStyle=orthogonalEdgeStyle;rounded=0;orthogonalLoop=1;jettySize=auto;html=1;exitX=1;exitY=0.5;exitDx=0;exitDy=0;entryX=0;entryY=0.25;entryDx=0;entryDy=0;" parent="1" source="WGcpLWfaYdW83E1MO45Z-3" target="WGcpLWfaYdW83E1MO45Z-12" edge="1">
          <mxGeometry relative="1" as="geometry">
            <mxPoint x="160" y="744" as="sourcePoint" />
            <mxPoint x="400" y="520" as="targetPoint" />
            <Array as="points">
              <mxPoint x="280" y="647" />
              <mxPoint x="280" y="722" />
            </Array>
          </mxGeometry>
        </mxCell>
        <mxCell id="WGcpLWfaYdW83E1MO45Z-12" value="struct nf_hook_entries" style="swimlane;fontStyle=0;childLayout=stackLayout;horizontal=1;startSize=26;fillColor=none;horizontalStack=0;resizeParent=1;resizeParentMax=0;resizeLast=0;collapsible=1;marginBottom=0;" parent="1" vertex="1">
          <mxGeometry x="360" y="702" width="140" height="78" as="geometry" />
        </mxCell>
        <mxCell id="WGcpLWfaYdW83E1MO45Z-13" value="+ num_hook_entries" style="text;strokeColor=none;fillColor=none;align=left;verticalAlign=top;spacingLeft=4;spacingRight=4;overflow=hidden;rotatable=0;points=[[0,0.5],[1,0.5]];portConstraint=eastwest;" parent="WGcpLWfaYdW83E1MO45Z-12" vertex="1">
          <mxGeometry y="26" width="140" height="26" as="geometry" />
        </mxCell>
        <mxCell id="WGcpLWfaYdW83E1MO45Z-14" value="+ hooks[]" style="text;strokeColor=none;fillColor=none;align=left;verticalAlign=top;spacingLeft=4;spacingRight=4;overflow=hidden;rotatable=0;points=[[0,0.5],[1,0.5]];portConstraint=eastwest;" parent="WGcpLWfaYdW83E1MO45Z-12" vertex="1">
          <mxGeometry y="52" width="140" height="26" as="geometry" />
        </mxCell>
        <mxCell id="WGcpLWfaYdW83E1MO45Z-16" value="" style="endArrow=none;dashed=1;html=1;dashPattern=1 3;strokeWidth=2;rounded=0;exitX=0.514;exitY=1.192;exitDx=0;exitDy=0;exitPerimeter=0;" parent="1" source="WGcpLWfaYdW83E1MO45Z-14" edge="1">
          <mxGeometry width="50" height="50" relative="1" as="geometry">
            <mxPoint x="-87" y="402" as="sourcePoint" />
            <mxPoint x="432" y="812" as="targetPoint" />
          </mxGeometry>
        </mxCell>
        <mxCell id="WGcpLWfaYdW83E1MO45Z-17" value="struct nf_hook_entries" style="swimlane;fontStyle=0;childLayout=stackLayout;horizontal=1;startSize=26;fillColor=none;horizontalStack=0;resizeParent=1;resizeParentMax=0;resizeLast=0;collapsible=1;marginBottom=0;" parent="1" vertex="1">
          <mxGeometry x="360" y="530" width="140" height="78" as="geometry" />
        </mxCell>
        <mxCell id="WGcpLWfaYdW83E1MO45Z-18" value="+ num_hook_entries" style="text;strokeColor=none;fillColor=none;align=left;verticalAlign=top;spacingLeft=4;spacingRight=4;overflow=hidden;rotatable=0;points=[[0,0.5],[1,0.5]];portConstraint=eastwest;" parent="WGcpLWfaYdW83E1MO45Z-17" vertex="1">
          <mxGeometry y="26" width="140" height="26" as="geometry" />
        </mxCell>
        <mxCell id="WGcpLWfaYdW83E1MO45Z-19" value="+ hooks[]" style="text;strokeColor=none;fillColor=none;align=left;verticalAlign=top;spacingLeft=4;spacingRight=4;overflow=hidden;rotatable=0;points=[[0,0.5],[1,0.5]];portConstraint=eastwest;" parent="WGcpLWfaYdW83E1MO45Z-17" vertex="1">
          <mxGeometry y="52" width="140" height="26" as="geometry" />
        </mxCell>
        <mxCell id="WGcpLWfaYdW83E1MO45Z-20" value="" style="endArrow=none;dashed=1;html=1;dashPattern=1 3;strokeWidth=2;rounded=0;exitX=0.514;exitY=1.192;exitDx=0;exitDy=0;exitPerimeter=0;" parent="1" source="WGcpLWfaYdW83E1MO45Z-19" edge="1">
          <mxGeometry width="50" height="50" relative="1" as="geometry">
            <mxPoint x="-87" y="230" as="sourcePoint" />
            <mxPoint x="432" y="640" as="targetPoint" />
          </mxGeometry>
        </mxCell>
      </root>
    </mxGraphModel>
  </diagram>
  <diagram id="2HbAY52hiquR8ns-bWJS" name="第 2 页">
    <mxGraphModel dx="2022" dy="1786" grid="1" gridSize="10" guides="1" tooltips="1" connect="1" arrows="1" fold="1" page="1" pageScale="1" pageWidth="827" pageHeight="1169" math="0" shadow="0">
      <root>
        <mxCell id="0" />
        <mxCell id="1" parent="0" />
        <mxCell id="eAiBXkdEMD5erkpoSmOt-1" value="struct nf_conntrack_tuple" style="swimlane;fontStyle=0;childLayout=stackLayout;horizontal=1;startSize=26;fillColor=none;horizontalStack=0;resizeParent=1;resizeParentMax=0;resizeLast=0;collapsible=1;marginBottom=0;" vertex="1" parent="1">
          <mxGeometry x="-70" y="280" width="160" height="78" as="geometry" />
        </mxCell>
        <mxCell id="eAiBXkdEMD5erkpoSmOt-2" value="+ src" style="text;strokeColor=none;fillColor=none;align=left;verticalAlign=top;spacingLeft=4;spacingRight=4;overflow=hidden;rotatable=0;points=[[0,0.5],[1,0.5]];portConstraint=eastwest;" vertex="1" parent="eAiBXkdEMD5erkpoSmOt-1">
          <mxGeometry y="26" width="160" height="26" as="geometry" />
        </mxCell>
        <mxCell id="3wsNXwH3i-oFQJqiQevF-1" value="+ dst" style="text;strokeColor=none;fillColor=none;align=left;verticalAlign=top;spacingLeft=4;spacingRight=4;overflow=hidden;rotatable=0;points=[[0,0.5],[1,0.5]];portConstraint=eastwest;" vertex="1" parent="eAiBXkdEMD5erkpoSmOt-1">
          <mxGeometry y="52" width="160" height="26" as="geometry" />
        </mxCell>
        <mxCell id="3wsNXwH3i-oFQJqiQevF-2" value="struct nf_conntrack_man" style="swimlane;fontStyle=0;childLayout=stackLayout;horizontal=1;startSize=26;fillColor=none;horizontalStack=0;resizeParent=1;resizeParentMax=0;resizeLast=0;collapsible=1;marginBottom=0;" vertex="1" parent="1">
          <mxGeometry x="240" y="134" width="160" height="104" as="geometry" />
        </mxCell>
        <mxCell id="3wsNXwH3i-oFQJqiQevF-3" value="+ u3" style="text;strokeColor=none;fillColor=none;align=left;verticalAlign=top;spacingLeft=4;spacingRight=4;overflow=hidden;rotatable=0;points=[[0,0.5],[1,0.5]];portConstraint=eastwest;" vertex="1" parent="3wsNXwH3i-oFQJqiQevF-2">
          <mxGeometry y="26" width="160" height="26" as="geometry" />
        </mxCell>
        <mxCell id="3wsNXwH3i-oFQJqiQevF-4" value="+ u" style="text;strokeColor=none;fillColor=none;align=left;verticalAlign=top;spacingLeft=4;spacingRight=4;overflow=hidden;rotatable=0;points=[[0,0.5],[1,0.5]];portConstraint=eastwest;" vertex="1" parent="3wsNXwH3i-oFQJqiQevF-2">
          <mxGeometry y="52" width="160" height="26" as="geometry" />
        </mxCell>
        <mxCell id="3wsNXwH3i-oFQJqiQevF-5" value="+ l3num" style="text;strokeColor=none;fillColor=none;align=left;verticalAlign=top;spacingLeft=4;spacingRight=4;overflow=hidden;rotatable=0;points=[[0,0.5],[1,0.5]];portConstraint=eastwest;" vertex="1" parent="3wsNXwH3i-oFQJqiQevF-2">
          <mxGeometry y="78" width="160" height="26" as="geometry" />
        </mxCell>
        <mxCell id="3wsNXwH3i-oFQJqiQevF-6" value="union nf_inet_addr" style="swimlane;fontStyle=0;childLayout=stackLayout;horizontal=1;startSize=26;fillColor=none;horizontalStack=0;resizeParent=1;resizeParentMax=0;resizeLast=0;collapsible=1;marginBottom=0;" vertex="1" parent="1">
          <mxGeometry x="520" y="-50" width="160" height="156" as="geometry" />
        </mxCell>
        <mxCell id="3wsNXwH3i-oFQJqiQevF-7" value="+ all[4]" style="text;strokeColor=none;fillColor=none;align=left;verticalAlign=top;spacingLeft=4;spacingRight=4;overflow=hidden;rotatable=0;points=[[0,0.5],[1,0.5]];portConstraint=eastwest;" vertex="1" parent="3wsNXwH3i-oFQJqiQevF-6">
          <mxGeometry y="26" width="160" height="26" as="geometry" />
        </mxCell>
        <mxCell id="3wsNXwH3i-oFQJqiQevF-10" value="+ ip" style="text;strokeColor=none;fillColor=none;align=left;verticalAlign=top;spacingLeft=4;spacingRight=4;overflow=hidden;rotatable=0;points=[[0,0.5],[1,0.5]];portConstraint=eastwest;" vertex="1" parent="3wsNXwH3i-oFQJqiQevF-6">
          <mxGeometry y="52" width="160" height="26" as="geometry" />
        </mxCell>
        <mxCell id="3wsNXwH3i-oFQJqiQevF-11" value="+ ip6[4]" style="text;strokeColor=none;fillColor=none;align=left;verticalAlign=top;spacingLeft=4;spacingRight=4;overflow=hidden;rotatable=0;points=[[0,0.5],[1,0.5]];portConstraint=eastwest;" vertex="1" parent="3wsNXwH3i-oFQJqiQevF-6">
          <mxGeometry y="78" width="160" height="26" as="geometry" />
        </mxCell>
        <mxCell id="3wsNXwH3i-oFQJqiQevF-8" value="+ in" style="text;strokeColor=none;fillColor=none;align=left;verticalAlign=top;spacingLeft=4;spacingRight=4;overflow=hidden;rotatable=0;points=[[0,0.5],[1,0.5]];portConstraint=eastwest;" vertex="1" parent="3wsNXwH3i-oFQJqiQevF-6">
          <mxGeometry y="104" width="160" height="26" as="geometry" />
        </mxCell>
        <mxCell id="3wsNXwH3i-oFQJqiQevF-9" value="+ in6" style="text;strokeColor=none;fillColor=none;align=left;verticalAlign=top;spacingLeft=4;spacingRight=4;overflow=hidden;rotatable=0;points=[[0,0.5],[1,0.5]];portConstraint=eastwest;" vertex="1" parent="3wsNXwH3i-oFQJqiQevF-6">
          <mxGeometry y="130" width="160" height="26" as="geometry" />
        </mxCell>
        <mxCell id="3wsNXwH3i-oFQJqiQevF-12" value="union nf_conntrack_man_proto" style="swimlane;fontStyle=0;childLayout=stackLayout;horizontal=1;startSize=26;fillColor=none;horizontalStack=0;resizeParent=1;resizeParentMax=0;resizeLast=0;collapsible=1;marginBottom=0;" vertex="1" parent="1">
          <mxGeometry x="520" y="150" width="200" height="208" as="geometry" />
        </mxCell>
        <mxCell id="3wsNXwH3i-oFQJqiQevF-13" value="+ all" style="text;strokeColor=none;fillColor=none;align=left;verticalAlign=top;spacingLeft=4;spacingRight=4;overflow=hidden;rotatable=0;points=[[0,0.5],[1,0.5]];portConstraint=eastwest;" vertex="1" parent="3wsNXwH3i-oFQJqiQevF-12">
          <mxGeometry y="26" width="200" height="26" as="geometry" />
        </mxCell>
        <mxCell id="3wsNXwH3i-oFQJqiQevF-14" value="+ struct {port} tcp;" style="text;strokeColor=none;fillColor=none;align=left;verticalAlign=top;spacingLeft=4;spacingRight=4;overflow=hidden;rotatable=0;points=[[0,0.5],[1,0.5]];portConstraint=eastwest;" vertex="1" parent="3wsNXwH3i-oFQJqiQevF-12">
          <mxGeometry y="52" width="200" height="26" as="geometry" />
        </mxCell>
        <mxCell id="3wsNXwH3i-oFQJqiQevF-18" value="+ struct {port} udp;" style="text;strokeColor=none;fillColor=none;align=left;verticalAlign=top;spacingLeft=4;spacingRight=4;overflow=hidden;rotatable=0;points=[[0,0.5],[1,0.5]];portConstraint=eastwest;" vertex="1" parent="3wsNXwH3i-oFQJqiQevF-12">
          <mxGeometry y="78" width="200" height="26" as="geometry" />
        </mxCell>
        <mxCell id="3wsNXwH3i-oFQJqiQevF-19" value="+ struct {id} icmp;" style="text;strokeColor=none;fillColor=none;align=left;verticalAlign=top;spacingLeft=4;spacingRight=4;overflow=hidden;rotatable=0;points=[[0,0.5],[1,0.5]];portConstraint=eastwest;" vertex="1" parent="3wsNXwH3i-oFQJqiQevF-12">
          <mxGeometry y="104" width="200" height="26" as="geometry" />
        </mxCell>
        <mxCell id="3wsNXwH3i-oFQJqiQevF-20" value="+ struct {port} dccp;" style="text;strokeColor=none;fillColor=none;align=left;verticalAlign=top;spacingLeft=4;spacingRight=4;overflow=hidden;rotatable=0;points=[[0,0.5],[1,0.5]];portConstraint=eastwest;" vertex="1" parent="3wsNXwH3i-oFQJqiQevF-12">
          <mxGeometry y="130" width="200" height="26" as="geometry" />
        </mxCell>
        <mxCell id="3wsNXwH3i-oFQJqiQevF-21" value="+ struct {port} sctp;" style="text;strokeColor=none;fillColor=none;align=left;verticalAlign=top;spacingLeft=4;spacingRight=4;overflow=hidden;rotatable=0;points=[[0,0.5],[1,0.5]];portConstraint=eastwest;" vertex="1" parent="3wsNXwH3i-oFQJqiQevF-12">
          <mxGeometry y="156" width="200" height="26" as="geometry" />
        </mxCell>
        <mxCell id="3wsNXwH3i-oFQJqiQevF-22" value="+ struct {key} gre;" style="text;strokeColor=none;fillColor=none;align=left;verticalAlign=top;spacingLeft=4;spacingRight=4;overflow=hidden;rotatable=0;points=[[0,0.5],[1,0.5]];portConstraint=eastwest;" vertex="1" parent="3wsNXwH3i-oFQJqiQevF-12">
          <mxGeometry y="182" width="200" height="26" as="geometry" />
        </mxCell>
        <mxCell id="3wsNXwH3i-oFQJqiQevF-23" value="" style="endArrow=classic;html=1;rounded=0;exitX=1;exitY=0.5;exitDx=0;exitDy=0;entryX=-0.002;entryY=0.057;entryDx=0;entryDy=0;entryPerimeter=0;" edge="1" parent="1" source="3wsNXwH3i-oFQJqiQevF-3" target="3wsNXwH3i-oFQJqiQevF-6">
          <mxGeometry width="50" height="50" relative="1" as="geometry">
            <mxPoint x="420" y="230" as="sourcePoint" />
            <mxPoint x="510" y="80" as="targetPoint" />
          </mxGeometry>
        </mxCell>
        <mxCell id="3wsNXwH3i-oFQJqiQevF-24" value="" style="endArrow=classic;html=1;rounded=0;exitX=1;exitY=0.5;exitDx=0;exitDy=0;entryX=-0.002;entryY=0.071;entryDx=0;entryDy=0;entryPerimeter=0;" edge="1" parent="1" source="3wsNXwH3i-oFQJqiQevF-4" target="3wsNXwH3i-oFQJqiQevF-12">
          <mxGeometry width="50" height="50" relative="1" as="geometry">
            <mxPoint x="410" y="183" as="sourcePoint" />
            <mxPoint x="530" y="89" as="targetPoint" />
          </mxGeometry>
        </mxCell>
        <mxCell id="3wsNXwH3i-oFQJqiQevF-25" value="struct " style="swimlane;fontStyle=0;childLayout=stackLayout;horizontal=1;startSize=26;fillColor=none;horizontalStack=0;resizeParent=1;resizeParentMax=0;resizeLast=0;collapsible=1;marginBottom=0;" vertex="1" parent="1">
          <mxGeometry x="240" y="478" width="160" height="130" as="geometry" />
        </mxCell>
        <mxCell id="3wsNXwH3i-oFQJqiQevF-26" value="+ u3" style="text;strokeColor=none;fillColor=none;align=left;verticalAlign=top;spacingLeft=4;spacingRight=4;overflow=hidden;rotatable=0;points=[[0,0.5],[1,0.5]];portConstraint=eastwest;" vertex="1" parent="3wsNXwH3i-oFQJqiQevF-25">
          <mxGeometry y="26" width="160" height="26" as="geometry" />
        </mxCell>
        <mxCell id="3wsNXwH3i-oFQJqiQevF-27" value="+ u" style="text;strokeColor=none;fillColor=none;align=left;verticalAlign=top;spacingLeft=4;spacingRight=4;overflow=hidden;rotatable=0;points=[[0,0.5],[1,0.5]];portConstraint=eastwest;" vertex="1" parent="3wsNXwH3i-oFQJqiQevF-25">
          <mxGeometry y="52" width="160" height="26" as="geometry" />
        </mxCell>
        <mxCell id="3wsNXwH3i-oFQJqiQevF-28" value="+ protonum" style="text;strokeColor=none;fillColor=none;align=left;verticalAlign=top;spacingLeft=4;spacingRight=4;overflow=hidden;rotatable=0;points=[[0,0.5],[1,0.5]];portConstraint=eastwest;" vertex="1" parent="3wsNXwH3i-oFQJqiQevF-25">
          <mxGeometry y="78" width="160" height="26" as="geometry" />
        </mxCell>
        <mxCell id="3wsNXwH3i-oFQJqiQevF-29" value="+ dir" style="text;strokeColor=none;fillColor=none;align=left;verticalAlign=top;spacingLeft=4;spacingRight=4;overflow=hidden;rotatable=0;points=[[0,0.5],[1,0.5]];portConstraint=eastwest;" vertex="1" parent="3wsNXwH3i-oFQJqiQevF-25">
          <mxGeometry y="104" width="160" height="26" as="geometry" />
        </mxCell>
        <mxCell id="3wsNXwH3i-oFQJqiQevF-30" value="union nf_inet_addr" style="swimlane;fontStyle=0;childLayout=stackLayout;horizontal=1;startSize=26;fillColor=none;horizontalStack=0;resizeParent=1;resizeParentMax=0;resizeLast=0;collapsible=1;marginBottom=0;" vertex="1" parent="1">
          <mxGeometry x="520" y="440" width="160" height="156" as="geometry" />
        </mxCell>
        <mxCell id="3wsNXwH3i-oFQJqiQevF-31" value="+ all[4]" style="text;strokeColor=none;fillColor=none;align=left;verticalAlign=top;spacingLeft=4;spacingRight=4;overflow=hidden;rotatable=0;points=[[0,0.5],[1,0.5]];portConstraint=eastwest;" vertex="1" parent="3wsNXwH3i-oFQJqiQevF-30">
          <mxGeometry y="26" width="160" height="26" as="geometry" />
        </mxCell>
        <mxCell id="3wsNXwH3i-oFQJqiQevF-32" value="+ ip" style="text;strokeColor=none;fillColor=none;align=left;verticalAlign=top;spacingLeft=4;spacingRight=4;overflow=hidden;rotatable=0;points=[[0,0.5],[1,0.5]];portConstraint=eastwest;" vertex="1" parent="3wsNXwH3i-oFQJqiQevF-30">
          <mxGeometry y="52" width="160" height="26" as="geometry" />
        </mxCell>
        <mxCell id="3wsNXwH3i-oFQJqiQevF-33" value="+ ip6[4]" style="text;strokeColor=none;fillColor=none;align=left;verticalAlign=top;spacingLeft=4;spacingRight=4;overflow=hidden;rotatable=0;points=[[0,0.5],[1,0.5]];portConstraint=eastwest;" vertex="1" parent="3wsNXwH3i-oFQJqiQevF-30">
          <mxGeometry y="78" width="160" height="26" as="geometry" />
        </mxCell>
        <mxCell id="3wsNXwH3i-oFQJqiQevF-34" value="+ in" style="text;strokeColor=none;fillColor=none;align=left;verticalAlign=top;spacingLeft=4;spacingRight=4;overflow=hidden;rotatable=0;points=[[0,0.5],[1,0.5]];portConstraint=eastwest;" vertex="1" parent="3wsNXwH3i-oFQJqiQevF-30">
          <mxGeometry y="104" width="160" height="26" as="geometry" />
        </mxCell>
        <mxCell id="3wsNXwH3i-oFQJqiQevF-35" value="+ in6" style="text;strokeColor=none;fillColor=none;align=left;verticalAlign=top;spacingLeft=4;spacingRight=4;overflow=hidden;rotatable=0;points=[[0,0.5],[1,0.5]];portConstraint=eastwest;" vertex="1" parent="3wsNXwH3i-oFQJqiQevF-30">
          <mxGeometry y="130" width="160" height="26" as="geometry" />
        </mxCell>
        <mxCell id="3wsNXwH3i-oFQJqiQevF-36" value="union nf_conntrack_man_proto" style="swimlane;fontStyle=0;childLayout=stackLayout;horizontal=1;startSize=26;fillColor=none;horizontalStack=0;resizeParent=1;resizeParentMax=0;resizeLast=0;collapsible=1;marginBottom=0;" vertex="1" parent="1">
          <mxGeometry x="520" y="640" width="200" height="208" as="geometry" />
        </mxCell>
        <mxCell id="3wsNXwH3i-oFQJqiQevF-37" value="+ all" style="text;strokeColor=none;fillColor=none;align=left;verticalAlign=top;spacingLeft=4;spacingRight=4;overflow=hidden;rotatable=0;points=[[0,0.5],[1,0.5]];portConstraint=eastwest;" vertex="1" parent="3wsNXwH3i-oFQJqiQevF-36">
          <mxGeometry y="26" width="200" height="26" as="geometry" />
        </mxCell>
        <mxCell id="3wsNXwH3i-oFQJqiQevF-38" value="+ struct {port} tcp;" style="text;strokeColor=none;fillColor=none;align=left;verticalAlign=top;spacingLeft=4;spacingRight=4;overflow=hidden;rotatable=0;points=[[0,0.5],[1,0.5]];portConstraint=eastwest;" vertex="1" parent="3wsNXwH3i-oFQJqiQevF-36">
          <mxGeometry y="52" width="200" height="26" as="geometry" />
        </mxCell>
        <mxCell id="3wsNXwH3i-oFQJqiQevF-39" value="+ struct {port} udp;" style="text;strokeColor=none;fillColor=none;align=left;verticalAlign=top;spacingLeft=4;spacingRight=4;overflow=hidden;rotatable=0;points=[[0,0.5],[1,0.5]];portConstraint=eastwest;" vertex="1" parent="3wsNXwH3i-oFQJqiQevF-36">
          <mxGeometry y="78" width="200" height="26" as="geometry" />
        </mxCell>
        <mxCell id="3wsNXwH3i-oFQJqiQevF-40" value="+ struct {type, code} icmp;" style="text;strokeColor=none;fillColor=none;align=left;verticalAlign=top;spacingLeft=4;spacingRight=4;overflow=hidden;rotatable=0;points=[[0,0.5],[1,0.5]];portConstraint=eastwest;" vertex="1" parent="3wsNXwH3i-oFQJqiQevF-36">
          <mxGeometry y="104" width="200" height="26" as="geometry" />
        </mxCell>
        <mxCell id="3wsNXwH3i-oFQJqiQevF-41" value="+ struct {port} dccp;" style="text;strokeColor=none;fillColor=none;align=left;verticalAlign=top;spacingLeft=4;spacingRight=4;overflow=hidden;rotatable=0;points=[[0,0.5],[1,0.5]];portConstraint=eastwest;" vertex="1" parent="3wsNXwH3i-oFQJqiQevF-36">
          <mxGeometry y="130" width="200" height="26" as="geometry" />
        </mxCell>
        <mxCell id="3wsNXwH3i-oFQJqiQevF-42" value="+ struct {port} sctp;" style="text;strokeColor=none;fillColor=none;align=left;verticalAlign=top;spacingLeft=4;spacingRight=4;overflow=hidden;rotatable=0;points=[[0,0.5],[1,0.5]];portConstraint=eastwest;" vertex="1" parent="3wsNXwH3i-oFQJqiQevF-36">
          <mxGeometry y="156" width="200" height="26" as="geometry" />
        </mxCell>
        <mxCell id="3wsNXwH3i-oFQJqiQevF-43" value="+ struct {key} gre;" style="text;strokeColor=none;fillColor=none;align=left;verticalAlign=top;spacingLeft=4;spacingRight=4;overflow=hidden;rotatable=0;points=[[0,0.5],[1,0.5]];portConstraint=eastwest;" vertex="1" parent="3wsNXwH3i-oFQJqiQevF-36">
          <mxGeometry y="182" width="200" height="26" as="geometry" />
        </mxCell>
        <mxCell id="3wsNXwH3i-oFQJqiQevF-44" value="" style="endArrow=classic;html=1;rounded=0;exitX=1;exitY=0.5;exitDx=0;exitDy=0;entryX=-0.002;entryY=0.057;entryDx=0;entryDy=0;entryPerimeter=0;" edge="1" parent="1" target="3wsNXwH3i-oFQJqiQevF-30" source="3wsNXwH3i-oFQJqiQevF-26">
          <mxGeometry width="50" height="50" relative="1" as="geometry">
            <mxPoint x="400" y="663" as="sourcePoint" />
            <mxPoint x="510" y="570" as="targetPoint" />
          </mxGeometry>
        </mxCell>
        <mxCell id="3wsNXwH3i-oFQJqiQevF-45" value="" style="endArrow=classic;html=1;rounded=0;exitX=1;exitY=0.5;exitDx=0;exitDy=0;entryX=-0.002;entryY=0.071;entryDx=0;entryDy=0;entryPerimeter=0;" edge="1" parent="1" target="3wsNXwH3i-oFQJqiQevF-36" source="3wsNXwH3i-oFQJqiQevF-27">
          <mxGeometry width="50" height="50" relative="1" as="geometry">
            <mxPoint x="400" y="689" as="sourcePoint" />
            <mxPoint x="530" y="579" as="targetPoint" />
          </mxGeometry>
        </mxCell>
        <mxCell id="3wsNXwH3i-oFQJqiQevF-46" value="" style="endArrow=classic;html=1;rounded=0;exitX=1;exitY=0.5;exitDx=0;exitDy=0;entryX=-0.018;entryY=0.136;entryDx=0;entryDy=0;entryPerimeter=0;" edge="1" parent="1" source="eAiBXkdEMD5erkpoSmOt-2" target="3wsNXwH3i-oFQJqiQevF-2">
          <mxGeometry width="50" height="50" relative="1" as="geometry">
            <mxPoint x="410" y="527" as="sourcePoint" />
            <mxPoint x="530" y="459" as="targetPoint" />
          </mxGeometry>
        </mxCell>
        <mxCell id="3wsNXwH3i-oFQJqiQevF-47" value="" style="endArrow=classic;html=1;rounded=0;exitX=1;exitY=0.5;exitDx=0;exitDy=0;entryX=-0.023;entryY=0.097;entryDx=0;entryDy=0;entryPerimeter=0;" edge="1" parent="1" source="3wsNXwH3i-oFQJqiQevF-1" target="3wsNXwH3i-oFQJqiQevF-25">
          <mxGeometry width="50" height="50" relative="1" as="geometry">
            <mxPoint x="90" y="369" as="sourcePoint" />
            <mxPoint x="247" y="158" as="targetPoint" />
          </mxGeometry>
        </mxCell>
      </root>
    </mxGraphModel>
  </diagram>
</mxfile>
